<svg xmlns="http://www.w3.org/2000/svg" width="11.354" height="11.354" viewBox="0 0 11.354 11.354">
  <path id="times-solid" d="M7.829,85.677l3.228-3.228a1.015,1.015,0,0,0,0-1.435l-.717-.717a1.015,1.015,0,0,0-1.435,0L5.677,83.525,2.449,80.3a1.015,1.015,0,0,0-1.435,0L.3,81.014a1.015,1.015,0,0,0,0,1.435l3.228,3.228L.3,88.9a1.015,1.015,0,0,0,0,1.435l.717.717a1.015,1.015,0,0,0,1.435,0l3.228-3.228L8.9,91.056a1.015,1.015,0,0,0,1.435,0l.717-.717a1.015,1.015,0,0,0,0-1.435Z" transform="translate(-0.001 -80)" fill="#f5f5f5"/>
</svg>
