<svg xmlns="http://www.w3.org/2000/svg" xmlns:xlink="http://www.w3.org/1999/xlink" width="98.891" height="89.28" viewBox="0 0 98.891 89.28">
  <defs>
    <linearGradient id="linear-gradient" x1="0.5" x2="0.5" y2="1" gradientUnits="objectBoundingBox">
      <stop offset="0" stop-color="#5f91b7"/>
      <stop offset="1" stop-color="#24618f"/>
    </linearGradient>
    <filter id="comment-solid" x="0" y="0" width="98.891" height="89.28" filterUnits="userSpaceOnUse">
      <feOffset dy="3" input="SourceAlpha"/>
      <feGaussianBlur stdDeviation="3" result="blur"/>
      <feFlood flood-opacity="0.122"/>
      <feComposite operator="in" in2="blur"/>
      <feComposite in="SourceGraphic"/>
    </filter>
  </defs>
  <g id="Group_1593" data-name="Group 1593" transform="translate(-6633.269 -6948.86)">
    <g transform="matrix(1, 0, 0, 1, 6633.27, 6948.86)" filter="url(#comment-solid)">
      <g id="comment-solid-2" data-name="comment-solid" transform="translate(11 -24)" fill="url(#linear-gradient)">
        <path d="M 1.201424241065979 100.2795333862305 C 0.3129242956638336 100.2795333862305 -0.4587423801422119 99.77250671386719 -0.812431275844574 98.95630645751953 C -1.166820168495178 98.13850402832031 -1.00188684463501 97.19825744628906 -0.3922423720359802 96.5609130859375 L -0.3870766162872314 96.55551910400391 C -0.2398261278867722 96.39817047119141 5.499398231506348 90.18308258056641 7.448715686798096 83.16010284423828 C 4.841081142425537 80.45752716064453 2.794633865356445 77.45929718017578 1.361635446548462 74.24054718017578 C -0.205431267619133 70.72064971923828 -0.9999979138374329 67.01849365234375 -0.9999979138374329 63.2369270324707 C -0.9999979138374329 58.85669326782227 0.05439095944166183 54.61001586914063 2.133879899978638 50.61483764648438 C 4.1335129737854 46.77309417724609 6.991679668426514 43.32675933837891 10.62899112701416 40.37155914306641 C 14.2509241104126 37.42885971069336 18.46523475646973 35.11979293823242 23.15484619140625 33.50850296020508 C 27.99936866760254 31.84398078918457 33.14386749267578 31.00000381469727 38.44545745849609 31.00000381469727 C 43.74703598022461 31.00000381469727 48.89153671264648 31.84398078918457 53.73605728149414 33.50850296020508 C 58.4256706237793 35.11979293823242 62.63998031616211 37.42885971069336 66.26192474365234 40.37155914306641 C 69.89923858642578 43.32675933837891 72.75740051269531 46.77309417724609 74.75703430175781 50.61483764648438 C 76.83652496337891 54.61001586914063 77.89091491699219 58.85670471191406 77.89091491699219 63.2369270324707 C 77.89091491699219 67.61714935302734 76.83652496337891 71.86383819580078 74.75703430175781 75.85902404785156 C 72.75740051269531 79.70076751708984 69.89923858642578 83.14710235595703 66.26192474365234 86.102294921875 C 62.63998031616211 89.04500579833984 58.4256706237793 91.35407257080078 53.73605728149414 92.96536254882813 C 48.89153671264648 94.6298828125 43.74703598022461 95.47386169433594 38.44545745849609 95.47386169433594 C 32.95262908935547 95.47386169433594 27.58920288085938 94.5382080078125 22.49424171447754 92.69205474853516 C 20.01292037963867 94.61077117919922 17.32878303527832 96.20673370361328 14.50789070129395 97.44004058837891 C 10.19834613800049 99.32419586181641 5.721402168273926 100.2795333862305 1.201424241065979 100.2795333862305 Z" stroke="none"/>
        <path d="M 38.44544982910156 31.99999237060547 C 17.21035385131836 31.99999237060547 0 45.98152160644531 0 63.2369384765625 C 0 70.68572998046875 3.213798522949219 77.50379943847656 8.56011962890625 82.86513519287109 C 6.682899475097656 90.43408203125 0.4054718017578125 97.17704772949219 0.3303909301757813 97.25215148925781 C 0 97.59754943847656 -0.0901031494140625 98.10814666748047 0.1051177978515625 98.55868530273438 C 0.30035400390625 99.00921630859375 0.7208480834960938 99.27953338623047 1.201423645019531 99.27953338623047 C 11.15818786621094 99.27953338623047 18.62201309204102 94.50389862060547 22.31637954711914 91.56041717529297 C 27.22719192504883 93.4075927734375 32.67863845825195 94.47386169433594 38.44544982910156 94.47386169433594 C 59.68055725097656 94.47386169433594 76.89090728759766 80.49232482910156 76.89090728759766 63.2369384765625 C 76.89090728759766 45.98152160644531 59.68055725097656 31.99999237060547 38.44544982910156 31.99999237060547 M 38.44544982910156 29.99999237060547 C 43.85784912109375 29.99999237060547 49.11167144775391 30.86222839355469 54.06100463867188 32.56275939941406 C 58.86199951171875 34.21232604980469 63.17914199829102 36.57845306396484 66.89249420166016 39.59542846679688 C 70.63650512695313 42.63731384277344 73.58095550537109 46.18943786621094 75.64405822753906 50.15313720703125 C 77.79850769042969 54.29232025146484 78.89090728759766 58.69435882568359 78.89090728759766 63.2369384765625 C 78.89090728759766 67.77951049804688 77.79850769042969 72.18153381347656 75.64405822753906 76.32072448730469 C 73.58095550537109 80.28441619873047 70.63650512695313 83.83653259277344 66.89249420166016 86.87843322753906 C 63.17914199829102 89.89540100097656 58.86199951171875 92.26153564453125 54.06100463867188 93.91110229492188 C 49.11167144775391 95.61163330078125 43.85784912109375 96.47386169433594 38.44544982910156 96.47386169433594 C 33.0209846496582 96.47386169433594 27.71972274780273 95.58018493652344 22.66950225830078 93.81583404541016 C 20.24592590332031 95.63710021972656 17.63982009887695 97.16215515136719 14.90848541259766 98.35630035400391 C 10.47183990478516 100.2960205078125 5.860122680664063 101.2795333862305 1.201423645019531 101.2795333862305 C -0.072418212890625 101.2795333862305 -1.223068237304688 100.5236892700195 -1.729988098144531 99.35392761230469 C -2.244705200195313 98.16604614257813 -2.003242492675781 96.79841613769531 -1.114883422851563 95.86968994140625 L -1.113265991210938 95.86799621582031 C -1.041389465332031 95.79078674316406 0.4820098876953125 94.14260864257813 2.20745849609375 91.60987854003906 C 4.126213073730469 88.79342651367188 5.536613464355469 85.98911285400391 6.326866149902344 83.43069458007813 C 3.828994750976563 80.75518798828125 1.854026794433594 77.80526733398438 0.4480819702148438 74.64726257324219 C -1.176338195800781 70.99851989746094 -2 67.15953826904297 -2 63.2369384765625 C -2 58.69435882568359 -0.9076004028320313 54.29232025146484 1.246849060058594 50.15313720703125 C 3.309944152832031 46.18943786621094 6.254402160644531 42.63731384277344 9.9984130859375 39.59542846679688 C 13.71176528930664 36.57845306396484 18.02890777587891 34.21232604980469 22.82990646362305 32.56275939941406 C 27.77922439575195 30.86222839355469 33.03305053710938 29.99999237060547 38.44544982910156 29.99999237060547 Z" stroke="none" fill="#fff"/>
      </g>
    </g>
    <path id="exclamation-solid" d="M29.535,36.543a6.767,6.767,0,1,1-6.767-6.767A6.775,6.775,0,0,1,29.535,36.543ZM16.783,2.132l1.15,23.009a2.03,2.03,0,0,0,2.028,1.929h5.612A2.03,2.03,0,0,0,27.6,25.14l1.15-23.009A2.03,2.03,0,0,0,26.724,0H18.811A2.03,2.03,0,0,0,16.783,2.132Z" transform="translate(6659.947 6965.155)" fill="#fff"/>
  </g>
</svg>
