<svg id="EC_Logo" data-name="EC Logo" xmlns="http://www.w3.org/2000/svg" width="174.695" height="42.498" viewBox="0 0 174.695 42.498">
  <g id="Group_1" data-name="Group 1" transform="translate(33.35 12.924)">
    <path id="Path_1" data-name="Path 1" d="M198.435,85.594h-5.077v3.957h5.676v2.019H190.9V78.1h7.835v2.018h-5.377V83.6h5.077Z" transform="translate(-190.9 -77.38)" fill="#fff"/>
    <path id="Path_2" data-name="Path 2" d="M245.118,99.49l1.16,1.84c.32.519.6,1,.879,1.5h.059c.28-.54.559-1.039.84-1.539l1.08-1.8h2.678l-3.258,4.677,3.317,5.057H249.1l-1.2-1.939c-.32-.521-.6-1.039-.88-1.579h-.04c-.28.559-.559,1.039-.879,1.579l-1.12,1.939H242.26l3.379-4.958-3.258-4.776Z" transform="translate(-233.288 -95.034)" fill="#fff"/>
    <path id="Path_3" data-name="Path 3" d="M305.38,101.7c0-1.279-.04-2.318-.08-3.237h2.159l.121,1.5h.04a3.792,3.792,0,0,1,3.338-1.719c2.238,0,4.1,1.918,4.1,4.958,0,3.517-2.219,5.216-4.437,5.216a3.2,3.2,0,0,1-2.739-1.3h-.04v5.036H305.38Zm2.458,2.418a2.49,2.49,0,0,0,.08.68,2.224,2.224,0,0,0,2.159,1.719c1.558,0,2.479-1.3,2.479-3.218,0-1.719-.839-3.118-2.418-3.118a2.29,2.29,0,0,0-2.2,1.819,2.244,2.244,0,0,0-.1.62v1.5Z" transform="translate(-285.315 -94.002)" fill="#fff"/>
    <path id="Path_4" data-name="Path 4" d="M371.5,104.015c.059,1.759,1.44,2.519,3,2.519a7.33,7.33,0,0,0,2.7-.44l.36,1.7a9.112,9.112,0,0,1-3.4.62,4.62,4.62,0,0,1-5.017-4.937c0-2.7,1.639-5.237,4.757-5.237,3.178,0,4.2,2.6,4.2,4.738a6.024,6.024,0,0,1-.08,1.039Zm4.277-1.719a2.092,2.092,0,0,0-2.018-2.378A2.4,2.4,0,0,0,371.5,102.3Z" transform="translate(-338.002 -94.002)" fill="#fff"/>
    <path id="Path_5" data-name="Path 5" d="M431.34,101.588c0-1.319-.019-2.259-.08-3.138H433.4l.08,1.859h.08a2.9,2.9,0,0,1,2.659-2.079,2.586,2.586,0,0,1,.58.059v2.318a3.392,3.392,0,0,0-.72-.08,2.166,2.166,0,0,0-2.2,1.859,4.191,4.191,0,0,0-.08.76v5.036h-2.458v-6.595Z" transform="translate(-389.27 -93.994)" fill="#fff"/>
    <path id="Path_6" data-name="Path 6" d="M473.258,85.19v2.5H475.6v1.84h-2.339v4.3c0,1.179.32,1.8,1.26,1.8a3.015,3.015,0,0,0,.959-.121l.04,1.878a5.3,5.3,0,0,1-1.778.26,2.859,2.859,0,0,1-2.119-.819,3.882,3.882,0,0,1-.76-2.718V89.528h-1.4v-1.84h1.4v-1.8Z" transform="translate(-420.797 -83.232)" fill="#fff"/>
    <path id="Path_7" data-name="Path 7" d="M522.144,90.131a8.428,8.428,0,0,1-3.478.62c-4.276,0-6.876-2.7-6.876-6.8,0-4.437,3.078-7.115,7.2-7.115a7.755,7.755,0,0,1,3.277.6l-.54,1.958a6.554,6.554,0,0,0-2.638-.519c-2.738,0-4.717,1.719-4.717,4.956,0,2.958,1.738,4.857,4.7,4.857a6.9,6.9,0,0,0,2.678-.5Z" transform="translate(-455.732 -76.34)" fill="#fff"/>
    <path id="Path_8" data-name="Path 8" d="M586.994,103.228a4.821,4.821,0,0,1-5,5.176,4.707,4.707,0,0,1-4.878-5.017,4.805,4.805,0,0,1,5.036-5.157A4.671,4.671,0,0,1,586.994,103.228Zm-7.335.1c0,1.88.919,3.3,2.42,3.3,1.4,0,2.379-1.378,2.379-3.338,0-1.52-.68-3.258-2.358-3.258C580.357,100.029,579.659,101.708,579.659,103.328Z" transform="translate(-509.649 -93.994)" fill="#fff"/>
    <rect id="Rectangle_1" data-name="Rectangle 1" width="2.479" height="14.191" transform="translate(79.363)" fill="#fff"/>
    <rect id="Rectangle_2" data-name="Rectangle 2" width="2.479" height="14.191" transform="translate(84.499)" fill="#fff"/>
    <path id="Path_9" data-name="Path 9" d="M702.808,104.015c.059,1.759,1.44,2.519,3,2.519a7.33,7.33,0,0,0,2.7-.44l.36,1.7a9.112,9.112,0,0,1-3.4.62,4.62,4.62,0,0,1-5.017-4.937c0-2.7,1.639-5.237,4.757-5.237,3.178,0,4.2,2.6,4.2,4.738a6.008,6.008,0,0,1-.08,1.039h-6.516Zm4.277-1.719a2.092,2.092,0,0,0-2.02-2.378,2.4,2.4,0,0,0-2.259,2.378Z" transform="translate(-611.433 -94.002)" fill="#fff"/>
    <path id="Path_10" data-name="Path 10" d="M768.922,106.774c0,2.039-.419,3.5-1.44,4.418a5.6,5.6,0,0,1-3.758,1.179,6.9,6.9,0,0,1-3.4-.779l.54-1.859a5.881,5.881,0,0,0,2.839.739c1.6,0,2.8-.84,2.8-2.938v-.84h-.04a3.284,3.284,0,0,1-2.837,1.439c-2.419,0-4.137-2-4.137-4.757,0-3.2,2.079-5.136,4.416-5.136a3.061,3.061,0,0,1,2.818,1.52h.04l.1-1.3H769c-.04.66-.08,1.459-.08,2.8Zm-2.458-4.418a2.35,2.35,0,0,0-.08-.66,2.041,2.041,0,0,0-2-1.579c-1.38,0-2.4,1.2-2.4,3.178,0,1.66.84,3,2.378,3a2.1,2.1,0,0,0,2-1.478,4.271,4.271,0,0,0,.1-.88v-1.578Z" transform="translate(-660.159 -94.002)" fill="#fff"/>
    <path id="Path_11" data-name="Path 11" d="M827.38,104.015c.059,1.759,1.44,2.519,3,2.519a7.313,7.313,0,0,0,2.7-.44l.36,1.7a9.1,9.1,0,0,1-3.4.62,4.619,4.619,0,0,1-5.017-4.937c0-2.7,1.639-5.237,4.757-5.237,3.178,0,4.2,2.6,4.2,4.736a6.023,6.023,0,0,1-.08,1.039Zm4.276-1.719a2.092,2.092,0,0,0-2.018-2.378,2.4,2.4,0,0,0-2.259,2.378Z" transform="translate(-714.242 -94.002)" fill="#fff"/>
  </g>
  <path id="Path_12" data-name="Path 12" d="M911.011,45.9,897.78,59.131,911.011,72.36a21.231,21.231,0,0,0,0-26.459Z" transform="translate(-740.941 -37.881)" fill="#50a0dc"/>
  <path id="Path_13" data-name="Path 13" d="M59.14,17.857,72.368,4.626a21.228,21.228,0,0,0-26.458,0Z" transform="translate(-37.89 0)" fill="#50a0dc"/>
  <path id="Path_14" data-name="Path 14" d="M17.857,59.131,4.628,45.9a21.228,21.228,0,0,0,0,26.459Z" transform="translate(0 -37.881)" fill="#50a0dc"/>
  <path id="Path_15" data-name="Path 15" d="M59.131,141.05,45.9,154.28a21.224,21.224,0,0,0,26.459,0Z" transform="translate(-37.881 -116.409)" fill="#50a0dc"/>
</svg>
