<svg id="EC_Logo" data-name="EC Logo" xmlns="http://www.w3.org/2000/svg" xmlns:xlink="http://www.w3.org/1999/xlink" width="245.514" height="59.726" viewBox="0 0 245.514 59.726">
  <defs>
    <linearGradient id="linear-gradient" x1="-35.759" y1="-18.447" x2="-35.747" y2="-18.447" gradientUnits="objectBoundingBox">
      <stop offset="0" stop-color="#76bbe7"/>
      <stop offset="1" stop-color="#1567a3"/>
    </linearGradient>
    <linearGradient id="linear-gradient-2" x1="-18.51" y1="-26.887" x2="-18.503" y2="-26.887" xlink:href="#linear-gradient"/>
    <linearGradient id="linear-gradient-3" x1="-26.976" y1="-18.449" x2="-26.965" y2="-18.449" xlink:href="#linear-gradient"/>
    <linearGradient id="linear-gradient-4" x1="-18.509" y1="-28.267" x2="-18.501" y2="-28.267" xlink:href="#linear-gradient"/>
  </defs>
  <g id="Group_1" data-name="Group 1" transform="translate(46.868 18.163)">
    <path id="Path_1" data-name="Path 1" d="M201.489,88.632h-7.135v5.561h7.977v2.838H190.9V78.1h11.011v2.836h-7.557v4.888h7.135Z" transform="translate(-190.9 -77.089)"/>
    <path id="Path_2" data-name="Path 2" d="M246.277,99.49l1.63,2.585c.449.729.842,1.4,1.235,2.106h.083c.393-.759.786-1.461,1.181-2.163l1.517-2.529h3.764l-4.579,6.572,4.662,7.108h-3.9l-1.684-2.725c-.449-.732-.842-1.461-1.237-2.219h-.057c-.393.786-.786,1.461-1.235,2.219l-1.574,2.725h-3.82l4.748-6.968-4.579-6.712Z" transform="translate(-229.65 -93.227)"/>
    <path id="Path_3" data-name="Path 3" d="M305.413,103.1c0-1.8-.056-3.258-.113-4.549h3.035l.169,2.106h.056a5.33,5.33,0,0,1,4.692-2.416c3.145,0,5.757,2.7,5.757,6.968,0,4.942-3.118,7.331-6.236,7.331a4.5,4.5,0,0,1-3.85-1.827h-.057v7.078h-3.454Zm3.454,3.4a3.5,3.5,0,0,0,.113.955,3.125,3.125,0,0,0,3.035,2.416c2.19,0,3.484-1.827,3.484-4.522,0-2.416-1.178-4.382-3.4-4.382a3.218,3.218,0,0,0-3.089,2.556,3.153,3.153,0,0,0-.14.872V106.5Z" transform="translate(-277.213 -92.284)"/>
    <path id="Path_4" data-name="Path 4" d="M372.454,106.357c.083,2.472,2.023,3.54,4.213,3.54a10.3,10.3,0,0,0,3.793-.619l.506,2.389a12.805,12.805,0,0,1-4.775.872c-4.439,0-7.051-2.752-7.051-6.938,0-3.793,2.3-7.36,6.685-7.36,4.466,0,5.9,3.651,5.9,6.658a8.466,8.466,0,0,1-.113,1.461Zm6.01-2.416c.027-1.264-.533-3.341-2.836-3.341-2.136,0-3.035,1.937-3.174,3.341Z" transform="translate(-325.38 -92.284)"/>
    <path id="Path_5" data-name="Path 5" d="M431.373,102.949c0-1.854-.027-3.174-.113-4.409h3.005l.113,2.612h.113a4.081,4.081,0,0,1,3.737-2.922,3.634,3.634,0,0,1,.815.083v3.258a4.767,4.767,0,0,0-1.012-.113,3.044,3.044,0,0,0-3.089,2.612,5.887,5.887,0,0,0-.113,1.068v7.078h-3.454v-9.268Z" transform="translate(-372.249 -92.276)"/>
    <path id="Path_6" data-name="Path 6" d="M474.8,85.19V88.7h3.287v2.585H474.8v6.04c0,1.657.449,2.529,1.77,2.529a4.238,4.238,0,0,0,1.348-.169l.056,2.639a7.454,7.454,0,0,1-2.5.366,4.019,4.019,0,0,1-2.978-1.151,5.456,5.456,0,0,1-1.068-3.82V91.286H469.46V88.7h1.967V86.172Z" transform="translate(-401.07 -82.438)"/>
    <path id="Path_7" data-name="Path 7" d="M526.342,95.519a11.844,11.844,0,0,1-4.888.872c-6.01,0-9.663-3.793-9.663-9.55,0-6.236,4.326-10,10.113-10a10.9,10.9,0,0,1,4.606.842l-.759,2.752a9.21,9.21,0,0,0-3.707-.729c-3.847,0-6.629,2.416-6.629,6.965,0,4.157,2.443,6.825,6.6,6.825a9.7,9.7,0,0,0,3.764-.7Z" transform="translate(-433.007 -76.138)"/>
    <path id="Path_8" data-name="Path 8" d="M591,105.254c0,5.028-3.538,7.275-7.021,7.275-3.877,0-6.855-2.669-6.855-7.051,0-4.5,2.949-7.248,7.078-7.248C588.271,98.23,591,101.1,591,105.254Zm-10.309.14c0,2.642,1.291,4.635,3.4,4.635,1.966,0,3.344-1.937,3.344-4.692,0-2.136-.955-4.579-3.314-4.579C581.669,100.759,580.687,103.118,580.687,105.394Z" transform="translate(-482.298 -92.276)"/>
    <rect id="Rectangle_1" data-name="Rectangle 1" width="3.484" height="19.943" transform="translate(111.534)"/>
    <rect id="Rectangle_2" data-name="Rectangle 2" width="3.484" height="19.943" transform="translate(118.752)"/>
    <path id="Path_9" data-name="Path 9" d="M703.764,106.357c.084,2.472,2.023,3.54,4.213,3.54a10.3,10.3,0,0,0,3.793-.619l.506,2.389a12.806,12.806,0,0,1-4.775.872c-4.439,0-7.051-2.752-7.051-6.938,0-3.793,2.3-7.36,6.685-7.36,4.466,0,5.9,3.651,5.9,6.658a8.45,8.45,0,0,1-.113,1.461h-9.158Zm6.01-2.416c.027-1.264-.533-3.341-2.838-3.341-2.136,0-3.034,1.937-3.174,3.341Z" transform="translate(-575.349 -92.284)"/>
    <path id="Path_10" data-name="Path 10" d="M772.745,110.233c0,2.865-.589,4.915-2.023,6.209a7.867,7.867,0,0,1-5.281,1.657,9.7,9.7,0,0,1-4.775-1.1l.759-2.612a8.264,8.264,0,0,0,3.99,1.039c2.246,0,3.933-1.181,3.933-4.13V110.12h-.056a4.616,4.616,0,0,1-3.987,2.023c-3.4,0-5.814-2.809-5.814-6.685,0-4.493,2.922-7.218,6.207-7.218a4.3,4.3,0,0,1,3.96,2.136h.057l.14-1.827h3.005c-.057.928-.113,2.05-.113,3.933Zm-3.454-6.209a3.3,3.3,0,0,0-.113-.928,2.869,2.869,0,0,0-2.809-2.219c-1.94,0-3.371,1.684-3.371,4.466,0,2.332,1.181,4.213,3.341,4.213a2.95,2.95,0,0,0,2.809-2.077,6,6,0,0,0,.14-1.237v-2.217Z" transform="translate(-619.894 -92.284)"/>
    <path id="Path_11" data-name="Path 11" d="M828.337,106.357c.083,2.472,2.023,3.54,4.213,3.54a10.278,10.278,0,0,0,3.791-.619l.506,2.389a12.8,12.8,0,0,1-4.775.872c-4.439,0-7.051-2.752-7.051-6.938,0-3.793,2.3-7.36,6.685-7.36,4.466,0,5.9,3.651,5.9,6.656a8.472,8.472,0,0,1-.113,1.461Zm6.01-2.416c.027-1.264-.533-3.341-2.836-3.341-2.136,0-3.035,1.937-3.174,3.341Z" transform="translate(-669.336 -92.284)"/>
  </g>
  <path id="Path_12" data-name="Path 12" d="M916.375,45.9,897.78,64.5l18.595,18.59a29.837,29.837,0,0,0,0-37.185Z" transform="translate(-677.364 -34.631)" fill="url(#linear-gradient)"/>
  <path id="Path_13" data-name="Path 13" d="M64.5,25.1,83.093,6.5a29.834,29.834,0,0,0-37.183,0Z" transform="translate(-34.639 0)" fill="url(#linear-gradient-2)"/>
  <path id="Path_14" data-name="Path 14" d="M25.1,64.5,6.5,45.9a29.833,29.833,0,0,0,0,37.185Z" transform="translate(0 -34.631)" fill="url(#linear-gradient-3)"/>
  <path id="Path_15" data-name="Path 15" d="M64.5,141.05,45.9,159.643a29.828,29.828,0,0,0,37.185,0Z" transform="translate(-34.631 -106.42)" fill="url(#linear-gradient-4)"/>
</svg>
