<svg xmlns="http://www.w3.org/2000/svg" xmlns:xlink="http://www.w3.org/1999/xlink" width="86.314" height="79.161" viewBox="0 0 86.314 79.161"><defs><style>.a{fill:url(#a);}.b,.c{stroke:none;}.c{fill:#fff;}.d{filter:url(#b);}</style><linearGradient id="a" x1="0.5" x2="0.5" y2="1" gradientUnits="objectBoundingBox"><stop offset="0" stop-color="#5f91b7"/><stop offset="1" stop-color="#24618f"/></linearGradient><filter id="b" x="0" y="0" width="86.314" height="79.161" filterUnits="userSpaceOnUse"><feOffset dy="3" input="SourceAlpha"/><feGaussianBlur stdDeviation="3" result="c"/><feFlood flood-opacity="0.122"/><feComposite operator="in" in2="c"/><feComposite in="SourceGraphic"/></filter></defs><g class="d" transform="matrix(1, 0, 0, 1, 0, 0)"><g class="a" transform="translate(11 8)"><path class="b" d="M 58.94073486328125 58.16139221191406 L 5.364655017852783 58.16139221191406 C 3.068475008010864 58.16139221191406 1.011215090751648 56.97294235229492 -0.1385249495506287 54.98229217529297 C -1.288984894752502 52.99038314819336 -1.290774941444397 50.61375427246094 -0.1433249562978745 48.62480545043945 L 26.64498519897461 2.178153991699219 C 27.79314422607422 0.1880438923835754 29.8517951965332 -1.000006079673767 32.15195465087891 -1.000006079673767 C 34.45343399047852 -1.000006079673767 36.51289367675781 0.1880438923835754 37.66100692749023 2.178023815155029 L 64.44877624511719 48.62492370605469 C 65.59618377685547 50.61375427246094 65.59482574462891 52.98965454101563 64.44507598876953 54.9803352355957 C 63.29464340209961 56.97221374511719 61.23694610595703 58.16139221191406 58.94073486328125 58.16139221191406 Z M 32.15303421020508 40.52174377441406 C 29.87265586853027 40.52174377441406 28.01743507385254 42.3769645690918 28.01743507385254 44.65733337402344 C 28.01743507385254 46.93771362304688 29.87265586853027 48.79293441772461 32.15303421020508 48.79293441772461 C 34.43340682983398 48.79293441772461 36.28862380981445 46.93771362304688 36.28862380981445 44.65733337402344 C 36.28862380981445 42.3769645690918 34.43340682983398 40.52174377441406 32.15303421020508 40.52174377441406 Z M 28.61483573913574 20.64922332763672 C 28.48773574829102 20.64922332763672 28.40582466125488 20.71568298339844 28.36830520629883 20.75530433654785 C 28.33076477050781 20.79495429992676 28.2688159942627 20.88044357299805 28.2757453918457 21.00750350952148 L 29.10392570495605 36.19099426269531 C 29.11374473571777 36.37109375 29.26273536682129 36.51216506958008 29.443115234375 36.51216506958008 L 34.86294555664063 36.51216506958008 C 35.0433349609375 36.51216506958008 35.19232559204102 36.37109375 35.20214462280273 36.19101333618164 L 36.03031539916992 21.00750350952148 C 36.03724670410156 20.88048362731934 35.97529602050781 20.79500389099121 35.9377555847168 20.75536346435547 C 35.90021514892578 20.71572303771973 35.81826400756836 20.64922332763672 35.69111633300781 20.64922332763672 L 28.61483573913574 20.64922332763672 Z"/><path class="c" d="M 58.94073486328125 57.16139221191406 C 63.05658340454102 57.16139221191406 65.64324188232422 52.69644546508789 63.58253479003906 49.1245231628418 L 63.58252334594727 49.1245231628418 L 36.79482650756836 2.677763938903809 C 35.76530838012695 0.8933330178260803 33.95877075195313 -2.907104544647154e-06 32.15195846557617 -2.907104544647154e-06 C 30.3469123840332 -2.907104544647154e-06 28.54159164428711 0.8918413519859314 27.51123428344727 2.677763938903809 L 0.7228650450706482 49.1245231628418 C -1.333835005760193 52.68952560424805 1.240885019302368 57.16139221191406 5.364655017852783 57.16139221191406 L 58.94073486328125 57.16139221191406 M 32.15303421020508 39.52174377441406 C 34.98933410644531 39.52174377441406 37.28862380981445 41.821044921875 37.28862380981445 44.65733337402344 C 37.28862380981445 47.49363327026367 34.98933410644531 49.79293441772461 32.15303421020508 49.79293441772461 C 29.31673431396484 49.79293441772461 27.01743507385254 47.49363327026367 27.01743507385254 44.65733337402344 C 27.01743507385254 41.821044921875 29.31673431396484 39.52174377441406 32.15303421020508 39.52174377441406 M 28.61483573913574 19.64922332763672 L 35.69111633300781 19.64922332763672 C 36.45967483520508 19.64922332763672 37.07069396972656 20.29452323913574 37.02883529663086 21.06196403503418 L 36.20066452026367 36.24545288085938 C 36.16192626953125 36.95596313476563 35.57445526123047 37.51216506958008 34.86294555664063 37.51216506958008 L 29.443115234375 37.51216506958008 C 28.73161506652832 37.51216506958008 28.14414596557617 36.95596313476563 28.10540580749512 36.24545288085938 L 27.27723503112793 21.06196403503418 L 27.27722549438477 21.06196403503418 C 27.23536491394043 20.29452323913574 27.84627532958984 19.64922332763672 28.61483573913574 19.64922332763672 M 58.94073486328125 59.16139221191406 L 5.364655017852783 59.16139221191406 C 2.707025051116943 59.16139221191406 0.326045036315918 57.78608322143555 -1.004464983940125 55.4824333190918 C -2.335705041885376 53.17753219604492 -2.337584972381592 50.4271240234375 -1.009514927864075 48.12509536743164 L 25.77873420715332 1.678533911705017 C 27.10769462585449 -0.6249361038208008 29.49015426635742 -2.000006198883057 32.15195465087891 -2.000006198883057 C 34.8150749206543 -2.000006198883057 37.19833374023438 -0.624946117401123 38.52717590332031 1.678293943405151 L 65.31503295898438 48.12531280517578 C 66.64299774169922 50.4271125793457 66.64154815673828 53.17679214477539 65.31102752685547 55.48047256469727 C 63.97981643676758 57.78535461425781 61.59839630126953 59.16139221191406 58.94073486328125 59.16139221191406 Z M 32.15303421020508 41.52174377441406 C 30.4240550994873 41.52174377441406 29.01743507385254 42.92836380004883 29.01743507385254 44.65733337402344 C 29.01743507385254 46.38631439208984 30.4240550994873 47.79293441772461 32.15303421020508 47.79293441772461 C 33.88200378417969 47.79293441772461 35.28862380981445 46.38631439208984 35.28862380981445 44.65733337402344 C 35.28862380981445 42.92836380004883 33.88200378417969 41.52174377441406 32.15303421020508 41.52174377441406 Z M 30.06838035583496 35.51216506958008 L 34.23769378662109 35.51216506958008 L 34.99383163452148 21.64922332763672 L 29.31222915649414 21.64922332763672 L 30.06838035583496 35.51216506958008 Z"/></g></g></svg>