<svg xmlns="http://www.w3.org/2000/svg" xmlns:xlink="http://www.w3.org/1999/xlink" width="158.663" height="103.999" viewBox="0 0 158.663 103.999"><defs><style>.a{fill:url(#a);}.b,.c{stroke:none;}.c{fill:#fff;}.d{filter:url(#b);}</style><linearGradient id="a" x1="0.5" x2="0.5" y2="1" gradientUnits="objectBoundingBox"><stop offset="0" stop-color="#5f91b7"/><stop offset="1" stop-color="#24618f"/></linearGradient><filter id="b" x="0" y="0" width="158.663" height="103.999" filterUnits="userSpaceOnUse"><feOffset dy="3" input="SourceAlpha"/><feGaussianBlur stdDeviation="3" result="c"/><feFlood flood-opacity="0.122"/><feComposite operator="in" in2="c"/><feComposite in="SourceGraphic"/></filter></defs><g class="d" transform="matrix(1, 0, 0, 1, 0, 0)"><g class="a" transform="translate(11 -56)"><path class="b" d="M 68.33566284179688 146.99609375 C 57.2794075012207 146.99609375 46.87129592895508 145.5564422607422 39.02864456176758 142.9423065185547 C 35.1534423828125 141.6506195068359 32.09542465209961 140.1341705322266 29.93949699401855 138.43505859375 C 27.54880714416504 136.5509033203125 26.33662414550781 134.4967956542969 26.33662414550781 132.3297576904297 L 26.33662414550781 132.2675170898438 L 26.34435272216797 132.2057495117188 L 29.3722972869873 107.9778747558594 L 29.51995277404785 106.7963104248047 L 30.65822410583496 107.1459808349609 L 61.62529754638672 116.6590347290039 C 63.11800765991211 117.1179809570313 65.49751281738281 117.6649627685547 68.35771942138672 117.6649627685547 C 70.62040710449219 117.6649627685547 72.86998748779297 117.3265075683594 75.04399108886719 116.6590042114258 L 106.0130462646484 107.1438522338867 L 107.1513519287109 106.7941131591797 L 107.2990264892578 107.9757461547852 L 110.3269882202148 132.2057647705078 L 110.3346939086914 132.2675323486328 L 110.3346939086914 132.3297576904297 C 110.3346939086914 134.4967956542969 109.1225128173828 136.5509033203125 106.731803894043 138.43505859375 C 104.5758972167969 140.1341705322266 101.5178604125977 141.6506195068359 97.64267730712891 142.9423065185547 C 89.80000305175781 145.5564422607422 79.39191436767578 146.99609375 68.33566284179688 146.99609375 Z M 19.65998840332031 146.99609375 L 7.67844295501709 146.99609375 C 6.332679271697998 146.99609375 5.077733993530273 146.3938446044922 4.23537015914917 145.3437347412109 C 3.39257025718689 144.2930755615234 3.076770305633545 142.9364013671875 3.368952035903931 141.6215972900391 L 8.682474136352539 117.7117538452148 C 6.865800380706787 116.2022094726563 5.83711576461792 114.0922470092773 5.83711576461792 111.8302383422852 C 5.83711576461792 109.2441940307617 7.147411823272705 106.8818664550781 9.37004566192627 105.4103698730469 C 9.585007667541504 102.2313461303711 10.65987396240234 99.18891143798828 12.50823402404785 96.50977325439453 L 3.481315612792969 93.73654937744141 C 0.7620793581008911 92.9013671875 -0.995011568069458 90.61550903320313 -0.9949933886528015 87.91305541992188 C -0.9949933886528015 85.21061706542969 0.7620975375175476 82.92476654052734 3.481388330459595 82.08958435058594 L 63.0473518371582 63.78950881958008 C 64.75667572021484 63.26399993896484 66.53607940673828 62.99750900268555 68.33591461181641 62.99750900268555 C 70.13568115234375 62.99750900268555 71.91555023193359 63.26398468017578 73.6260986328125 63.78950881958008 L 133.1900024414063 82.089599609375 C 135.9102783203125 82.92591094970703 137.6678924560547 85.21214294433594 137.6678924560547 87.91413116455078 C 137.6678924560547 90.61612701416016 135.9102935791016 92.90238189697266 133.1901702880859 93.73863983154297 L 73.62395477294922 112.0387649536133 C 71.91239166259766 112.5644378662109 70.13945770263672 112.8309478759766 68.35435485839844 112.8309478759766 C 66.57002258300781 112.8309478759766 64.73427581787109 112.5570373535156 63.04555130004883 112.0388565063477 L 21.75994682312012 99.35362243652344 C 19.74991607666016 100.8860855102539 18.48000526428223 103.1131210327148 18.20341682434082 105.5853881835938 C 20.281005859375 107.0738754272461 21.50344276428223 109.3666763305664 21.50344276428223 111.8302383422852 C 21.50344276428223 114.0922470092773 20.47475433349609 116.2021942138672 18.65806770324707 117.7117538452148 L 23.97160720825195 141.62158203125 C 24.26375198364258 142.9362335205078 23.94802474975586 144.2926940917969 23.10536956787109 145.3431701660156 C 22.26271629333496 146.3936157226563 21.00693321228027 146.99609375 19.65998840332031 146.99609375 Z"/><path class="c" d="M 68.33592224121094 63.99751281738281 C 66.64925384521484 63.99751281738281 64.96284484863281 64.24681091308594 63.34103393554688 64.74542236328125 L 3.774993896484375 83.04550933837891 C -1.251663208007813 84.58936309814453 -1.251663208007813 91.23676300048828 3.774993896484375 92.78062438964844 L 14.15927886962891 95.97086334228516 C 11.88083648681641 98.78742980957031 10.48003387451172 102.2232284545898 10.34123229980469 105.9857482910156 C 8.284881591796875 107.1644668579102 6.83709716796875 109.2912902832031 6.83709716796875 111.8302459716797 C 6.83709716796875 114.1321487426758 8.049972534179688 116.0689468383789 9.796714782714844 117.3074493408203 L 4.345138549804688 141.8385314941406 C 3.871078491210938 143.9717712402344 5.49395751953125 145.99609375 7.678436279296875 145.99609375 L 19.65997314453125 145.99609375 C 21.84659576416016 145.99609375 23.46945190429688 143.9717712402344 22.99541473388672 141.8385314941406 L 17.54383850097656 117.3074493408203 C 19.29055786132813 116.0689468383789 20.50345611572266 114.1321487426758 20.50345611572266 111.8302459716797 C 20.50345611572266 109.3596267700195 19.12185668945313 107.2925872802734 17.15945434570313 106.0925064086914 C 17.32175445556641 102.8851852416992 18.96171569824219 100.0494232177734 21.57753753662109 98.25144958496094 L 63.33889770507813 111.0828475952148 C 64.47507476806641 111.4314804077148 66.22406005859375 111.830940246582 68.35433959960938 111.830940246582 C 69.85143280029297 111.830940246582 71.53681182861328 111.6336669921875 73.33027648925781 111.0828475952148 L 132.8963165283203 92.78276824951172 C 137.9250946044922 91.23676300048828 137.9250946044922 84.59150695800781 132.8963165283203 83.04550933837891 L 73.3323974609375 64.74542236328125 C 71.70952606201172 64.24681091308594 70.02259063720703 63.99751281738281 68.33592224121094 63.99751281738281 M 106.3067321777344 108.0997467041016 L 75.33751678466797 117.6149444580078 C 72.82054138183594 118.3877716064453 70.45655822753906 118.6649627685547 68.35774230957031 118.6649627685547 C 65.37648010253906 118.6649627685547 62.92941284179688 118.1061782836914 61.33165740966797 117.6149444580078 L 30.36457824707031 108.1018829345703 L 27.33661651611328 132.3297424316406 C 27.33661651611328 139.8782653808594 45.69221496582031 145.99609375 68.33565521240234 145.99609375 C 90.97908020019531 145.99609375 109.3346710205078 139.8782653808594 109.3346710205078 132.3297424316406 L 106.3067321777344 108.0997467041016 M 68.33591461181641 61.99751281738281 C 70.23533630371094 61.99751281738281 72.114013671875 62.27882385253906 73.91977691650391 62.83363342285156 L 133.4836883544922 81.13371276855469 C 135.0860595703125 81.62632751464844 136.4203338623047 82.55712890625 137.3426361083984 83.82563018798828 C 138.2096405029297 85.01808929443359 138.6678924560547 86.43186950683594 138.6678924560547 87.91412353515625 C 138.6678924560547 89.39640808105469 138.2096405029297 90.81018829345703 137.3426361083984 92.00264739990234 C 136.4203338623047 93.27114868164063 135.0860595703125 94.20195007324219 133.4840393066406 94.69446563720703 L 73.91763305664063 112.9946441650391 C 72.11075592041016 113.5495834350586 70.23905944824219 113.8309478759766 68.35433197021484 113.8309478759766 C 66.47191619873047 113.8309478759766 64.53471374511719 113.5418243408203 62.752197265625 112.9948501586914 L 21.97518157958984 100.4659042358398 C 20.55214691162109 101.6911773681641 19.60822296142578 103.3316268920898 19.27754974365234 105.1495361328125 C 21.31790924072266 106.8238296508789 22.50345611572266 109.2416000366211 22.50345611572266 111.8302459716797 C 22.50345611572266 114.1938095092773 21.51858520507813 116.4060821533203 19.76187896728516 118.0690155029297 L 24.94779205322266 141.4046478271484 C 25.30607604980469 143.0169830322266 24.91883850097656 144.6805877685547 23.8853759765625 145.9689025878906 C 22.85193634033203 147.2572021484375 21.31183624267578 147.99609375 19.65997314453125 147.99609375 L 7.678436279296875 147.99609375 C 6.027755737304688 147.99609375 4.488494873046875 147.2574157714844 3.455337524414063 145.9694519042969 C 2.421722412109375 144.6809234619141 2.034439086914063 143.0171203613281 2.39276123046875 141.4046630859375 L 7.57867431640625 118.0690231323242 C 5.821975708007813 116.4060974121094 4.83709716796875 114.1938247680664 4.83709716796875 111.8302459716797 C 4.83709716796875 110.2445068359375 5.280410766601563 108.6926651000977 6.119155883789063 107.342529296875 C 6.711013793945313 106.3898010253906 7.492233276367188 105.5469055175781 8.41094970703125 104.8635482788086 C 8.6680908203125 102.118537902832 9.533538818359375 99.47927093505859 10.95651245117188 97.07917785644531 L 3.187652587890625 94.69244384765625 C 1.58599853515625 94.20050811767578 0.25189208984375 93.26988983154297 -0.670257568359375 92.00122833251953 C -1.53692626953125 90.80896759033203 -1.995010375976563 89.39528656005859 -1.995010375976563 87.91306304931641 C -1.995010375976563 86.43084716796875 -1.53692626953125 85.01716613769531 -0.670257568359375 83.82490539550781 C 0.25189208984375 82.55624389648438 1.58599853515625 81.62562561035156 3.187789916992188 81.13365173339844 L 62.75367736816406 62.83363342285156 C 64.55809783935547 62.27883911132813 66.43635559082031 61.99751281738281 68.33591461181641 61.99751281738281 Z M 107.9959716796875 105.4884643554688 L 108.2912979125977 107.8517456054688 L 111.3192367553711 132.0817565917969 L 111.3346710205078 132.2052612304688 L 111.3346710205078 132.3297424316406 C 111.3346710205078 133.6318969726563 110.9550170898438 134.9106750488281 110.2062149047852 136.1305084228516 C 109.543815612793 137.2096252441406 108.5830993652344 138.2492370605469 107.3507766723633 139.2204437255859 C 105.103874206543 140.9912719726563 101.943977355957 142.5626678466797 97.95887756347656 143.8909912109375 C 90.01695251464844 146.5382080078125 79.49655151367188 147.99609375 68.33565521240234 147.99609375 C 57.17475891113281 147.99609375 46.65433502197266 146.5382080078125 38.71241760253906 143.8909912109375 C 34.72731781005859 142.5626678466797 31.56741333007813 140.9912719726563 29.32051849365234 139.2204437255859 C 28.08819580078125 138.2492370605469 27.12747192382813 137.2096252441406 26.46507263183594 136.1305084228516 C 25.71627807617188 134.9106750488281 25.33661651611328 133.6318969726563 25.33661651611328 132.3297424316406 L 25.33661651611328 132.2052459716797 L 25.35205841064453 132.0817260742188 L 28.38001251220703 107.8538665771484 L 28.67535400390625 105.4907073974609 L 30.95189666748047 106.1900634765625 L 61.91897583007813 115.703125 C 63.34637451171875 116.1419830322266 65.62167358398438 116.6649703979492 68.35773468017578 116.6649703979492 C 70.52081298828125 116.6649703979492 72.67165374755859 116.3413238525391 74.75047302246094 115.7030487060547 L 105.7193374633789 106.1879501342773 L 107.9959716796875 105.4884643554688 Z"/></g></g></svg>