<svg xmlns="http://www.w3.org/2000/svg" width="20.916" height="21.951" viewBox="0 0 20.916 21.951">
  <g id="Path_794" data-name="Path 794" transform="translate(-4.6 -2.3)" fill="#fff" stroke-linecap="square">
    <path d="M 22.17670631408691 24.15074348449707 L 22.15402603149414 24.15074348449707 C 21.80575561523438 24.15074348449707 21.46842575073242 23.92683410644531 21.31461715698242 23.59358406066895 L 20.25963401794434 21.30778884887695 C 20.20786666870117 21.31512260437012 20.15816307067871 21.31512260437012 20.11237716674805 21.31512260437012 L 19.97137069702148 21.31512260437012 L 18.8869457244873 23.59463310241699 C 18.7336368560791 23.92683410644531 18.39630699157715 24.15074348449707 18.04803657531738 24.15074348449707 L 18.02535629272461 24.15074348449707 C 17.67741584777832 24.15074348449707 17.34877586364746 23.95788383483887 17.16768646240234 23.64743423461914 L 16.77054214477539 22.9367790222168 L 15.95600605010986 23.08298301696777 C 15.89835643768311 23.09539413452148 15.83593654632568 23.10201263427734 15.77377605438232 23.10201263427734 C 15.48904609680176 23.10201263427734 15.21488666534424 22.96652412414551 15.02159690856934 22.73029327392578 C 14.7990665435791 22.43372344970703 14.76110649108887 22.0564136505127 14.91744613647461 21.71765327453613 L 16.24506187438965 18.8824291229248 L 16.18120765686035 17.98851585388184 L 15.96038818359375 17.73089408874512 L 6.61479663848877 17.73089408874512 C 5.558976650238037 17.73089408874512 4.699996471405029 16.87191390991211 4.699996471405029 15.81609344482422 L 4.699996471405029 4.314803600311279 C 4.699996471405029 3.258983373641968 5.558976650238037 2.400003433227539 6.61479663848877 2.400003433227539 L 21.51884651184082 2.400003433227539 C 22.57466697692871 2.400003433227539 23.43364715576172 3.258983373641968 23.43364715576172 4.314803600311279 L 23.43364715576172 12.67651653289795 C 23.74890327453613 12.89021682739258 23.95585823059082 13.23419952392578 23.97789573669434 13.58672332763672 L 24.0660572052002 14.73268222808838 L 24.79376602172852 15.59271335601807 C 25.16473579406738 16.0378532409668 25.16473579406738 16.68320274353027 24.79424667358398 17.12779426574707 L 24.06625175476074 17.9881534576416 L 24.00237083435059 18.8824291229248 L 25.32974624633789 21.71715354919434 C 25.4878101348877 22.05962562561035 25.42342376708984 22.43779754638672 25.15790748596191 22.73035430908203 C 24.98868179321289 22.9597225189209 24.70162773132324 23.10201263427734 24.4073486328125 23.10201263427734 C 24.40731239318848 23.10201263427734 24.40732192993164 23.10201263427734 24.40728569030762 23.10201263427734 C 24.34398651123047 23.10200309753418 24.281005859375 23.09538269042969 24.22009658813477 23.08233261108398 L 23.40883445739746 22.93677520751953 L 23.01260566711426 23.64582252502441 C 22.86016654968262 23.95095252990723 22.53120613098145 24.15074348449707 22.17670631408691 24.15074348449707 Z M 16.78938674926758 21.56882286071777 L 16.80036735534668 21.56882286071777 L 16.95915603637695 21.56882286071777 C 17.30709648132324 21.56882286071777 17.6357364654541 21.76168251037598 17.81682586669922 22.07213401794434 L 18.0181999206543 22.44382476806641 L 18.85564613342285 20.62936210632324 L 18.46140098571777 20.29143333435059 L 17.3408260345459 20.20354461669922 C 17.2484073638916 20.20315361022949 17.15786933898926 20.18914031982422 17.07729148864746 20.16326522827148 L 16.36590957641602 21.66292953491211 L 16.77867698669434 21.57120323181152 L 16.78938674926758 21.56882286071777 Z M 21.36977386474609 20.60650444030762 L 22.23000907897949 22.42700576782227 L 22.4299259185791 22.07331275939941 C 22.60220718383789 21.77182388305664 22.94087600708008 21.57728385925293 23.29296684265137 21.57728385925293 C 23.3510570526123 21.57728385925293 23.40910720825195 21.58264350891113 23.46549606323242 21.59321403503418 L 23.86193084716797 21.66945457458496 L 23.14340591430664 20.15472030639648 C 23.06550979614258 20.17773628234863 22.97788429260254 20.20282745361328 22.88405227661133 20.20354652404785 L 21.74034309387207 20.29152488708496 L 21.36977386474609 20.60650444030762 Z M 18.64091682434082 18.98273849487305 C 18.88189888000488 18.98351287841797 19.10907173156738 19.07577896118164 19.31619644165039 19.25700378417969 L 20.13419914245605 19.97014045715332 L 20.93040657043457 19.25774383544922 C 21.10521697998047 19.10787391662598 21.34855651855469 19.00833320617676 21.59963607788086 18.98323440551758 L 22.69450187683105 18.89898109436035 L 22.75726127624512 17.83198356628418 C 22.75803565979004 17.59100151062012 22.85030364990234 17.36382675170898 23.03153610229492 17.15671348571777 L 23.74389266967773 16.33959579467773 L 23.03316688537598 15.56616306304932 L 23.02978706359863 15.56249332427979 L 23.02679634094238 15.55850315093994 C 22.87759590148926 15.35957336425781 22.78205680847168 15.11622333526611 22.75775718688965 14.8732738494873 L 22.67350387573242 13.77840709686279 L 21.60651588439941 13.71563816070557 C 21.36552238464355 13.71486377716064 21.13835144042969 13.62259674072266 20.93123626708984 13.44137382507324 L 20.11323356628418 12.72823715209961 L 19.31702613830566 13.44063377380371 C 19.14221572875977 13.59050369262695 18.89887619018555 13.69004344940186 18.64779663085938 13.71514320373535 L 17.55293083190918 13.79940509796143 L 17.49017143249512 14.86639404296875 C 17.4893970489502 15.10737800598145 17.39712905883789 15.33453941345215 17.21589660644531 15.54167366027832 L 16.50275993347168 16.35967636108398 L 17.21515655517578 17.1558837890625 C 17.36501693725586 17.33067321777344 17.46456718444824 17.57401275634766 17.48967742919922 17.82510375976563 L 17.57392883300781 18.91996955871582 L 18.64091682434082 18.98273849487305 Z M 6.61479663848877 3.711563348770142 C 6.282176494598389 3.711563348770142 6.011566638946533 3.982173442840576 6.011566638946533 4.314803600311279 L 6.011566638946533 15.81609344482422 C 6.011566638946533 16.15999412536621 6.270896434783936 16.4193229675293 6.61479663848877 16.4193229675293 L 15.14773082733154 16.4193229675293 C 15.13207340240479 16.11273193359375 15.23030471801758 15.81526660919189 15.42991638183594 15.57129383087158 L 16.18124008178711 14.70941543579102 L 16.21657562255859 14.21472358703613 L 8.837926864624023 14.21472358703613 C 8.488606452941895 14.21472358703613 8.193486213684082 13.91960334777832 8.193486213684082 13.57028388977051 C 8.193486213684082 13.22096347808838 8.488606452941895 12.92584323883057 8.837926864624023 12.92584323883057 L 16.54660987854004 12.92584323883057 C 16.74906539916992 12.67065143585205 17.03611946105957 12.51823329925537 17.36036682128906 12.49507331848145 L 18.50639533996582 12.38484859466553 L 19.36723709106445 11.65645313262939 C 19.58322715759277 11.47645378112793 19.85571670532227 11.37759304046631 20.13506698608398 11.37759304046631 C 20.41440582275391 11.37759304046631 20.68689727783203 11.47645378112793 20.90231704711914 11.65597343444824 L 21.76430892944336 12.40742588043213 L 22.1220760345459 12.43994998931885 L 22.1220760345459 4.314803600311279 C 22.1220760345459 3.982173442840576 21.85146713256836 3.711563348770142 21.51884651184082 3.711563348770142 L 6.61479663848877 3.711563348770142 Z" stroke="none"/>
    <path d="M 22.17670631408691 24.05074310302734 C 22.49429702758789 24.05074310302734 22.78920555114746 23.8692626953125 22.92531585693359 23.59704399108887 L 23.35632705688477 22.82575416564941 L 24.24104690551758 22.98455429077148 C 24.29607772827148 22.99634552001953 24.35184478759766 23.00200653076172 24.40729522705078 23.00201034545898 C 24.67184638977051 23.00202751159668 24.93035316467285 22.87325477600098 25.08038711547852 22.66696357727051 C 25.32992553710938 22.39474296569824 25.37529563903809 22.05447387695313 25.23918724060059 21.75956344604492 L 23.90076637268066 18.90125274658203 L 23.96882629394531 17.94848251342773 L 24.71742630004883 17.06377410888672 C 25.05770683288574 16.65543365478516 25.05770683288574 16.06562423706055 24.71742630004883 15.65730381011963 L 23.96882629394531 14.7725830078125 L 23.87808609008789 13.59296321868896 C 23.85539627075195 13.23000335693359 23.6285457611084 12.91241359710693 23.33364677429199 12.73093318939209 L 23.33364677429199 4.314803600311279 C 23.33364677429199 3.316663503646851 22.51698684692383 2.500003576278687 21.51884651184082 2.500003576278687 L 6.61479663848877 2.500003576278687 C 5.616656303405762 2.500003576278687 4.799996376037598 3.316663503646851 4.799996376037598 4.314803600311279 L 4.799996376037598 15.81609344482422 C 4.799996376037598 16.81423377990723 5.616656303405762 17.63089370727539 6.61479663848877 17.63089370727539 L 16.00638580322266 17.63089370727539 L 16.27860641479492 17.94848251342773 L 16.34666633605957 18.90125274658203 L 15.00824642181396 21.75956344604492 C 14.87213611602783 22.05447387695313 14.89482688903809 22.39474296569824 15.09898662567139 22.66696357727051 C 15.26776599884033 22.87323951721191 15.51405620574951 23.00201034545898 15.77377796173096 23.00201034545898 C 15.82823848724365 23.00201034545898 15.88328552246094 22.9963493347168 15.93833637237549 22.98455429077148 L 16.82304573059082 22.82575416564941 L 17.25406646728516 23.59704399108887 C 17.41285705566406 23.8692626953125 17.70776557922363 24.05074310302734 18.02535629272461 24.05074310302734 L 18.04803657531738 24.05074310302734 C 18.36562728881836 24.05074310302734 18.66053581237793 23.84658432006836 18.79664611816406 23.55167388916016 L 19.90820693969727 21.21512413024902 C 19.97626686096191 21.21512413024902 20.0443172454834 21.21512413024902 20.11237716674805 21.21512413024902 C 20.1804256439209 21.21512413024902 20.24848556518555 21.21512413024902 20.31653594970703 21.19243431091309 L 21.40541648864746 23.55167388916016 C 21.54152679443359 23.84658432006836 21.8364372253418 24.05074310302734 22.15402603149414 24.05074310302734 L 22.17670631408691 24.05074310302734 M 16.80036735534668 21.6688232421875 L 16.1878662109375 21.80493354797363 L 17.0272159576416 20.03550338745117 C 17.11795616149902 20.08087348937988 17.23137664794922 20.10355377197266 17.34480667114258 20.10355377197266 L 18.50173568725586 20.19429397583008 L 18.97812652587891 20.60263252258301 L 18.02535629272461 22.66696357727051 L 17.73044586181641 22.12252426147461 C 17.57165718078613 21.85030364990234 17.27674674987793 21.6688232421875 16.95915603637695 21.6688232421875 C 16.91378593444824 21.6688232421875 16.84573554992676 21.6688232421875 16.80036735534668 21.6688232421875 M 23.19753646850586 20.03550338745117 L 24.0368766784668 21.80493354797363 L 23.44706726074219 21.69150352478027 C 23.39595794677734 21.68192100524902 23.34433746337891 21.67728233337402 23.29296493530273 21.67728233337402 C 22.97948837280273 21.67728233337402 22.67291259765625 21.84965324401855 22.51698684692383 22.12252426147461 L 22.22207641601563 22.64427375793457 L 21.24662590026855 20.57994270324707 L 21.70032691955566 20.19430351257324 L 22.87993621826172 20.10356330871582 C 22.99336624145508 20.10356330871582 23.10679626464844 20.05819320678711 23.19753646850586 20.03550338745117 M 20.11237716674805 12.59482383728027 L 20.99708557128906 13.36611366271973 C 21.17856597900391 13.5249137878418 21.38273620605469 13.61564350128174 21.60958671569824 13.61564350128174 L 22.76651573181152 13.68370342254639 L 22.85725593566895 14.86332321166992 C 22.87994575500488 15.09017372131348 22.9706859588623 15.31702327728271 23.10679626464844 15.49850368499756 L 23.87808609008789 16.33784294128418 L 23.10679626464844 17.22256278991699 C 22.94799613952637 17.40404319763184 22.85725593566895 17.60820388793945 22.85725593566895 17.83505439758301 L 22.78920555114746 18.99199295043945 L 21.60958671569824 19.08273315429688 C 21.38273620605469 19.10541343688965 21.15588569641113 19.19615364074707 20.99708557128906 19.3322639465332 L 20.13505554199219 20.10355377197266 L 19.25034713745117 19.3322639465332 C 19.06886672973633 19.1734733581543 18.86469650268555 19.08273315429688 18.63784599304199 19.08273315429688 L 17.48091697692871 19.01467323303223 L 17.39017677307129 17.83505439758301 C 17.36748695373535 17.60820388793945 17.27674674987793 17.3813533782959 17.1406364440918 17.22256278991699 L 16.36934661865234 16.36053276062012 L 17.1406364440918 15.47582340240479 C 17.29943656921387 15.29433345794678 17.39017677307129 15.09017372131348 17.39017677307129 14.86332321166992 L 17.45822715759277 13.70639324188232 L 18.63784599304199 13.61564350128174 C 18.86469650268555 13.59296321868896 19.0915470123291 13.50222301483154 19.25034713745117 13.36611366271973 L 20.11237716674805 12.59482383728027 M 15.25778675079346 16.51932334899902 L 6.61479663848877 16.51932334899902 C 6.206466674804688 16.51932334899902 5.911566257476807 16.20174407958984 5.911566257476807 15.81609344482422 L 5.911566257476807 4.314803600311279 C 5.911566257476807 3.929153442382813 6.229156494140625 3.611563444137573 6.61479663848877 3.611563444137573 L 21.51884651184082 3.611563444137573 C 21.90448570251465 3.611563444137573 22.22207641601563 3.929153442382813 22.22207641601563 4.314803600311279 L 22.22207641601563 12.54945373535156 L 21.72300720214844 12.50408363342285 L 20.83829689025879 11.7327938079834 C 20.63413238525391 11.56265830993652 20.38459587097168 11.47759056091309 20.13506126403809 11.47759056091309 C 19.88552665710449 11.47759056091309 19.6359920501709 11.56265830993652 19.43182563781738 11.7327938079834 L 18.54710578918457 12.48139381408691 L 17.36748695373535 12.59482383728027 C 17.04989624023438 12.61750316619873 16.77767562866211 12.7763032913208 16.5961971282959 13.02584362030029 L 8.837926864624023 13.02584362030029 C 8.543026924133301 13.02584362030029 8.293486595153809 13.2753734588623 8.293486595153809 13.57028388977051 C 8.293486595153809 13.86518383026123 8.543026924133301 14.11472320556641 8.837926864624023 14.11472320556641 L 16.32397651672363 14.11472320556641 L 16.27860641479492 14.74990367889404 L 15.50731658935547 15.63461303710938 C 15.30315685272217 15.8841438293457 15.21241664886475 16.20174407958984 15.25778675079346 16.51932334899902 M 22.17670631408691 24.2507438659668 L 22.15402603149414 24.2507438659668 C 21.76144599914551 24.2507438659668 21.39632606506348 24.00924301147461 21.22382736206055 23.63548278808594 L 20.19837188720703 21.41366577148438 C 20.16779327392578 21.41512298583984 20.13893508911133 21.41512298583984 20.11237716674805 21.41512298583984 L 20.03453636169434 21.41512298583984 L 18.97724723815918 23.63759422302246 C 18.80573654174805 24.00924301147461 18.44061660766602 24.2507438659668 18.04803657531738 24.2507438659668 L 18.02535629272461 24.2507438659668 C 17.64199638366699 24.2507438659668 17.2802562713623 24.03887367248535 17.08130645751953 23.69781303405762 L 16.71802139282227 23.04779624938965 L 15.97701168060303 23.1808032989502 C 15.91024017333984 23.19487762451172 15.84188365936279 23.20201301574707 15.77377605438232 23.20201301574707 C 15.4589262008667 23.20201301574707 15.15655612945557 23.05315399169922 14.9441967010498 22.79361343383789 L 14.9415168762207 22.79034423828125 L 14.93898677825928 22.78696250915527 C 14.69664669036865 22.46383285522461 14.65465641021729 22.04843330383301 14.82665634155273 21.67575263977051 L 16.14346694946289 18.86357498168945 L 16.08381843566895 18.02854919433594 L 15.91439914703369 17.83089256286621 L 6.61479663848877 17.83089256286621 C 5.503836631774902 17.83089256286621 4.599996566772461 16.92705345153809 4.599996566772461 15.81609344482422 L 4.599996566772461 4.314803600311279 C 4.599996566772461 3.203843355178833 5.503836631774902 2.300003528594971 6.61479663848877 2.300003528594971 L 21.51884651184082 2.300003528594971 C 22.62980651855469 2.300003528594971 23.53364562988281 3.203843355178833 23.53364562988281 4.314803600311279 L 23.53364562988281 12.62450218200684 C 23.8534107208252 12.85813331604004 24.0544261932373 13.20817756652832 24.07769584655762 13.58048343658447 L 24.16327476501465 14.69275665283203 L 24.8701057434082 15.52811336517334 C 25.2724666595459 16.01092338562012 25.2724666595459 16.71012306213379 24.87106704711914 17.19181251525879 L 24.16366577148438 18.0278491973877 L 24.10396575927734 18.86357498168945 L 25.42031669616699 21.67475318908691 C 25.59533882141113 22.0539722442627 25.52589416503906 22.47114944458008 25.23528099060059 22.79389572143555 C 25.0471363067627 23.04592704772949 24.73104667663574 23.20201301574707 24.40732574462891 23.20201301574707 C 24.33810043334961 23.20200347900391 24.26922798156738 23.19487571716309 24.2025146484375 23.18082809448242 L 23.46135330200195 23.04779624938965 L 23.10205841064453 23.69075393676758 C 22.92979049682617 24.03110694885254 22.56712913513184 24.2507438659668 22.17670631408691 24.2507438659668 Z M 16.77841567993164 21.46882438659668 L 16.80036735534668 21.46882438659668 L 16.95915603637695 21.46882438659668 C 17.34251594543457 21.46882438659668 17.70425605773926 21.68069267272949 17.90320587158203 22.02175331115723 L 17.9047966003418 22.02448272705078 L 17.90630722045898 22.02726364135742 L 18.01106834411621 22.22066688537598 L 18.73318099975586 20.65609359741211 L 18.42109107971191 20.38858413696289 L 17.33651542663574 20.30352020263672 C 17.26663780212402 20.30295753479004 17.19754028320313 20.29530143737793 17.13204383850098 20.28116989135742 L 16.54395294189453 21.52092170715332 L 16.75697708129883 21.47358322143555 L 16.77841567993164 21.46882438659668 Z M 21.4929370880127 20.63306999206543 L 22.23795509338379 22.20973968505859 L 22.34287643432617 22.02411270141602 C 22.53287696838379 21.69160270690918 22.90562629699707 21.4772834777832 23.29296684265137 21.4772834777832 C 23.35720634460449 21.4772834777832 23.42145729064941 21.48322296142578 23.48391723632813 21.49492263793945 L 23.68698501586914 21.53397750854492 L 23.08920288085938 20.27378082275391 C 23.02814102172852 20.2894458770752 22.96023941040039 20.30254745483398 22.88834190368652 20.30350685119629 L 21.7803955078125 20.38873481750488 L 21.4929370880127 20.63306999206543 Z M 18.64394760131836 18.88275146484375 C 18.9087085723877 18.88427352905273 19.15701675415039 18.98484802246094 19.38204574584961 19.18174362182617 L 20.13333511352539 19.83672142028809 L 20.86372566223145 19.18321418762207 C 21.05530738830566 19.01895332336426 21.3187370300293 18.91081428527832 21.58968734741211 18.88372421264648 L 22.59980773925781 18.80598068237305 L 22.65727424621582 17.82896423339844 C 22.65879821777344 17.5642032623291 22.75938034057617 17.31588363647461 22.9562873840332 17.09086418151855 L 23.60969161987305 16.34136199951172 L 22.95952606201172 15.63383388519287 L 22.95278739929199 15.62648391723633 L 22.94679641723633 15.61850357055664 C 22.78681564331055 15.40519332885742 22.68433570861816 15.14406299591064 22.65824699401855 14.88323307037354 L 22.58050346374512 13.87310218811035 L 21.60348320007324 13.81562519073486 C 21.33870506286621 13.81410217285156 21.09040641784668 13.71352958679199 20.86538696289063 13.51662349700928 L 20.11409950256348 12.86165428161621 L 19.38370704650879 13.51516342163086 C 19.1921272277832 13.67942333221436 18.92869567871094 13.78756332397461 18.65774726867676 13.81465339660645 L 17.64762496948242 13.89240550994873 L 17.59015846252441 14.86941432952881 C 17.5886344909668 15.13417434692383 17.48805236816406 15.38248348236084 17.29115676879883 15.60752391815186 L 16.63617897033691 16.35881233215332 L 17.28968620300293 17.08920288085938 C 17.45393562316895 17.28076362609863 17.56208610534668 17.54419326782227 17.58918571472168 17.81514358520508 L 17.66693115234375 18.82527542114258 L 18.64394760131836 18.88275146484375 Z M 6.61479663848877 3.811563491821289 C 6.337316513061523 3.811563491821289 6.111566543579102 4.037313461303711 6.111566543579102 4.314803600311279 L 6.111566543579102 15.81609344482422 C 6.111566543579102 16.10298347473145 6.327906608581543 16.31932258605957 6.61479663848877 16.31932258605957 L 15.04657173156738 16.31932258605957 C 15.05457973480225 16.02539825439453 15.15977954864502 15.74354076385498 15.35252666473389 15.50796318054199 L 15.35450649261475 15.50554370880127 L 15.35656642913818 15.50318336486816 L 16.08388328552246 14.66891288757324 L 16.10918235778809 14.31472301483154 L 8.837926864624023 14.31472301483154 C 8.434396743774414 14.31472301483154 8.093486785888672 13.9738130569458 8.093486785888672 13.57028388977051 C 8.093486785888672 13.1667537689209 8.434396743774414 12.82584381103516 8.837926864624023 12.82584381103516 L 16.49943733215332 12.82584381103516 C 16.71731376647949 12.57117938995361 17.01682281494141 12.41935634613037 17.35323715209961 12.3953332901001 L 18.46566963195801 12.28830718994141 L 19.30263710021973 11.58011341094971 C 19.53715705871582 11.38468360900879 19.83237648010254 11.2775936126709 20.13506698608398 11.2775936126709 C 20.4377555847168 11.2775936126709 20.73297691345215 11.38468360900879 20.96633720397949 11.57914352416992 L 21.80560684204102 12.31076622009277 L 22.02207565307617 12.33044528961182 L 22.02207565307617 4.314803600311279 C 22.02207565307617 4.037313461303711 21.79632568359375 3.811563491821289 21.51884651184082 3.811563491821289 L 6.61479663848877 3.811563491821289 Z" stroke="none" fill="#fff"/>
  </g>
</svg>
