<svg xmlns="http://www.w3.org/2000/svg" width="17.998" height="17.998" viewBox="0 0 17.998 17.998">
  <g id="Group_1612" data-name="Group 1612" transform="translate(-1596.002 -97.002)">
    <ellipse id="Ellipse_67" data-name="Ellipse 67" cx="8.999" cy="8.999" rx="8.999" ry="8.999" transform="translate(1596.002 97.002)" fill="#fff"/>
    <path id="plus-solid" d="M13,37.5H8.5V33a1,1,0,0,0-1-1h-1a1,1,0,0,0-1,1v4.5H1a1,1,0,0,0-1,1v1a1,1,0,0,0,1,1H5.5V45a1,1,0,0,0,1,1h1a1,1,0,0,0,1-1V40.5H13a1,1,0,0,0,1-1v-1A1,1,0,0,0,13,37.5Z" transform="translate(1598 67)" fill="#276fa5"/>
  </g>
</svg>
