<svg xmlns="http://www.w3.org/2000/svg" width="15.734" height="15.734" viewBox="0 0 15.734 15.734"><defs><style>.a{fill:#f66;}</style></defs><path class="a" d="M10.85,87.867l4.473-4.473a1.406,1.406,0,0,0,0-1.988l-.994-.994a1.406,1.406,0,0,0-1.988,0L7.867,84.885,3.394,80.412a1.406,1.406,0,0,0-1.988,0l-.994.994a1.406,1.406,0,0,0,0,1.988l4.473,4.473L.412,92.34a1.406,1.406,0,0,0,0,1.988l.994.994a1.406,1.406,0,0,0,1.988,0L7.867,90.85l4.473,4.473a1.406,1.406,0,0,0,1.988,0l.994-.994a1.406,1.406,0,0,0,0-1.988Z" transform="translate(0 -80)"/></svg>