<svg xmlns="http://www.w3.org/2000/svg" width="20.469" height="20.469" viewBox="0 0 20.469 20.469"><defs><style>.a{fill:#f66;}</style></defs><path class="a" d="M14.114,90.234l5.819-5.819a1.829,1.829,0,0,0,0-2.586L18.64,80.536a1.829,1.829,0,0,0-2.586,0l-5.819,5.819L4.415,80.536a1.829,1.829,0,0,0-2.586,0L.536,81.829a1.829,1.829,0,0,0,0,2.586l5.819,5.819L.536,96.053a1.829,1.829,0,0,0,0,2.587l1.293,1.293a1.829,1.829,0,0,0,2.586,0l5.819-5.819,5.819,5.819a1.829,1.829,0,0,0,2.586,0l1.293-1.293a1.829,1.829,0,0,0,0-2.587Z" transform="translate(0 -80)"/></svg>